<?xml version="1.0" encoding="utf-8"?>
<!-- Generator: Adobe Illustrator 22.1.0, SVG Export Plug-In . SVG Version: 6.00 Build 0)  -->
<svg version="1.1" xmlns="http://www.w3.org/2000/svg" xmlns:xlink="http://www.w3.org/1999/xlink" x="0px" y="0px"
	 viewBox="0 0 924 351" enable-background="new 0 0 924 351" xml:space="preserve">
<g id="Calque_1">
	<path fill="#FFFFFF" d="M475.4,96.5h-1.5V98v40.1c-6.2-3-15.1-5-22.8-5c-17.3,0-31,4.9-40.7,14.7c-9.8,9.9-14.9,24.4-14.8,42.1
		c0.1,15.4,4.3,28.1,12.2,36.9c7.9,8.8,19.5,13.4,33.4,13.4c13.9,0,23.2-3.2,29.4-10.1c6.1-6.9,9-17.2,9-32.6V98v-1.5H478H475.4z
		 M473.9,144.5v53c0,13.6-2.4,22.7-7.6,28.6c-5.2,5.8-13.1,8.5-25.1,8.5c-12.3,0-22.4-4.1-29.4-11.8c-6.9-7.7-10.6-19.1-10.6-33
		c0-15.8,4.6-28.8,13.2-37.6c8.6-8.8,21.3-13.5,36.7-13.5C459,138.7,468.2,141,473.9,144.5z"/>
	<path fill="#FFFFFF" d="M579.4,184.9c3.3-4,5-9.5,5-16.1c0-20.7-17-35.7-40.4-35.7c-28.5,0-46.2,20.6-46.2,53.7
		c0,32.5,18.6,53.4,47.5,53.4c15.9,0,26.9-4.5,34.6-14l0.4-0.5l1-1.2l-1.2-1l-2.1-1.7l-1.2-0.9l-0.9,1.2l-0.4,0.6
		c-6.3,8.1-16.1,12-30.1,12c-11.9,0-22-4-29.3-11.5c-7-7.3-11.3-17.7-12.4-30.2h54.7C567.9,192.8,575,190.1,579.4,184.9z
		 M558.3,187.2h-54.8v-0.5c0-29.6,15.6-48,40.6-48c20.2,0,34.8,12.6,34.8,30C578.8,181,571.9,187.2,558.3,187.2z"/>
	<path fill="#FFFFFF" d="M641,133c-13.4,0-24.6,4.8-32.3,14c-7.6,9.1-11.7,22.3-11.8,38.2c-0.1,17.3,4.6,30.9,14.1,40.4
		c9.6,9.6,23.5,14.5,41.4,14.5c7.7,0,16.7-2,22.8-5v12.7c0,17.8-9.2,26.1-28.8,26.1c-14.3,0-26-4.8-31.2-12.9l-0.4-0.6l-0.9-1.4
		l-1.3,1l-2.1,1.7l-1.1,0.9l0.8,1.1l0.4,0.5c6.4,9.5,19.9,15.2,35.9,15.2c11.1,0,19.7-2.6,25.6-7.9c5.9-5.3,8.9-13,8.9-23v-73
		c0-14.8-3.1-25.3-9.6-32.3C664.7,136.4,654.8,133,641,133z M675.2,175.8v53c-5.6,3.4-14.8,5.8-22.8,5.8c-16.1,0-28.6-4.3-37.1-12.7
		c-8.5-8.4-12.8-20.7-12.8-36.6c0-14.4,3.5-26.3,10.3-34.4c6.6-8,16.4-12.2,28.3-12.2c12,0,20.5,2.9,26,8.8
		C672.5,153.4,675.2,162.7,675.2,175.8z"/>
	<path fill="#FFFFFF" d="M741.4,133c-13,0-23.8,3.3-31.5,9.6v-6.9v-1.5h-1.5h-2.6h-1.5v1.5v101.6v1.5h1.5h2.6h1.5v-1.5v-87.1
		c7.5-8,17.5-11.7,31.3-11.7h5.2h1.5v-1.5v-2.6V133h-1.5H741.4z"/>
	<polygon fill="#FFFFFF" points="791.2,129.2 792.5,130 793.3,128.7 808.9,103.6 809.7,102.3 808.4,101.5 806.2,100.2 804.9,99.4 
		804.1,100.6 788.5,125.8 787.7,127.1 789,127.9 	"/>
	<path fill="#FFFFFF" d="M834.5,184.9c3.3-4,5-9.5,5-16.1c0-20.7-17-35.7-40.4-35.7c-28.5,0-46.2,20.6-46.2,53.7
		c0,32.5,18.6,53.4,47.5,53.4c15.9,0,26.9-4.5,34.6-14l0.4-0.5l0.9-1.2l-1.2-0.9l-2.1-1.7l-1.2-0.9l-0.9,1.2l-0.4,0.6
		c-6.3,8.1-16.1,12-30.1,12c-11.9,0-22-4-29.3-11.5c-7-7.3-11.3-17.7-12.4-30.2h54.7C823,192.8,830.1,190.1,834.5,184.9z
		 M833.9,168.7c0,12.3-6.9,18.5-20.5,18.5h-54.9v-0.5c0-29.6,15.6-48,40.6-48C819.2,138.7,833.9,151.3,833.9,168.7z"/>
	<path fill="#FFFFFF" d="M889,182.9c-11-2.3-18.2-5-22.8-8.7c-4.4-3.5-6.4-7.9-6.4-14c0-14.5,8.9-21.6,27.2-21.6
		c15,0,23.7,3.7,30,12.9l0.4,0.6l0.9,1.3l1.3-1l2.1-1.7l1.1-0.9l-0.9-1.2l-0.4-0.5c-8.3-11.2-17.4-15.1-34.6-15.1
		c-12.1,0-21,3-26.4,8.9c-4.2,4.6-6.3,10.7-6.3,18.3c0,8.2,3.1,14.4,9.6,19c5.3,3.8,12.7,6.5,24.2,9c27.2,5.9,30.3,16.6,30.3,24.1
		c0,7-2.4,12.5-7.3,16.3c-4.9,3.8-12.2,5.9-21.1,5.9c-14.8,0-24.7-4.1-31.1-12.9l-0.4-0.6l-0.9-1.3l-1.2,1l-2.1,1.7l-1.2,0.9
		l0.9,1.2l0.4,0.5c8.1,10.6,18.8,15.1,35.6,15.1c10.6,0,19-2.4,25-7.2c5.9-4.8,9.1-11.9,9.1-20.6C923.8,197.3,912.8,187.9,889,182.9
		z"/>
</g>
<g id="Calque_2">
	<g>
		<path fill="#FFFFFF" d="M281.9,52.4c1.6,8.5,8.6,14.4,17.1,14.4c1.1,0,2.2-0.1,3.3-0.3c2.6-0.5,5.1-1.5,7.3-3.1
			c-7.5-8.9-15.8-17.1-24.9-24.4C282,42.9,281,47.6,281.9,52.4z"/>
		<path fill="#FFFFFF" d="M40.5,287c4.6,1,9.7,1.4,15.1,1.4c6,0,12.2-0.6,18.7-1.8c18.2-3.3,31.8-10,40.2-19.8
			c8.4-9.7,11.3-22,8.6-36.4c-2.2-12.1-6.2-20.7-12.3-26.5c-6-5.7-14-8.5-24.5-8.5c-4.4,0-9.3,0.5-14.5,1.4l-36.7,6.7l-0.6,0.1
			l-0.1-0.6l-0.9-4.9l-0.1-0.6l0.6-0.1l36.9-6.8l0.2,0c3.1-0.6,7.3-1.3,10.2-1.6c9.5-5,16.4-11.6,20.3-19.6c4-8,5-17.3,3.1-27.6
			c-2.3-12.3-7.1-21.7-14.4-27.9c-7.3-6.2-17.2-9.3-29.4-9.3c-5.3,0-11,0.6-17.2,1.7c-15,2.7-26.7,7.8-34.9,15
			c-5.5,17-8.5,35.2-8.5,54.1c0,42.3,15,81.1,40,111.4L40.5,287z"/>
		<path fill="#FFFFFF" d="M313.5,68.2c-3,2.2-6.4,3.7-10.1,4.4c-1.5,0.3-3,0.4-4.5,0.4c-11.6,0-21.1-8-23.2-19.5
			c-0.6-3.4-0.5-6.7,0.3-10c0.7-3,2-5.8,3.8-8.3C250.6,13.4,214.4,0.6,175.3,0.6c-73.7,0-136.8,45.6-162.6,110.2
			c7.9-4.8,17.7-8.3,29.9-10.5c6.4-1.2,12.5-1.8,18.1-1.8c13.8,0,25.1,3.6,33.6,10.8c8.5,7.2,14.1,17.8,16.6,31.5
			c1.9,10.4,1.1,19.9-2.3,28.5c-3.3,8-8.8,14.9-16.4,20.4c4.6,0.4,8.9,1.4,12.7,3c4.3,1.8,8.1,4.4,11.3,7.7c3.2,3.3,6,7.4,8.1,12.2
			c2.2,4.8,3.9,10.4,5,16.8c1.5,8,1.4,15.6-0.3,22.6c-1.6,6.9-4.8,13.2-9.4,18.6c-4.6,5.5-10.6,10.1-17.9,13.9
			c-7.4,3.8-16,6.6-25.7,8.4c-7.2,1.3-14.1,2-20.5,2c-3,0-5.9-0.2-8.7-0.4c32,34.6,77.7,56.3,128.5,56.3c96.7,0,175-78.4,175-175
			C350.3,135.1,336.5,97.9,313.5,68.2z M264.8,244c-9.3,11-24.3,18.7-43.5,22.2c-7.3,1.3-14.2,2-20.7,2c-17.3,0-31.1-4.7-41-13.9
			l-1.1-1.1l-0.5-0.4l0.4-0.5l3.4-3.9l0.5-0.5l0.5,0.5l1.2,1.2c8,8,20.7,12.3,36.7,12.3c6,0,12.3-0.6,18.9-1.8
			c18.2-3.3,31.8-10,40.2-19.8c8.4-9.7,11.3-22,8.6-36.4c-2.2-12.1-6.2-20.7-12.3-26.5c-6-5.7-14-8.5-24.5-8.5
			c-4.3,0-9.2,0.5-14.5,1.5l-36.7,6.7l-0.6,0.1l-0.1-0.6l-0.9-4.9l-0.1-0.6l0.6-0.1l36.8-6.7c3.6-0.7,7.6-1.4,10.4-1.6
			c9.5-5,16.4-11.6,20.3-19.6c4-8,5-17.3,3.1-27.6c-2.2-12.3-7.1-21.7-14.4-27.9c-7.3-6.2-17.2-9.3-29.4-9.3
			c-5.3,0-11.1,0.6-17.2,1.7c-23.3,4.3-38.5,14-45.2,28.9l-0.7,1.6l-0.3,0.6l-0.6-0.3l-4.6-2.5l-0.5-0.3l0.3-0.6l0.7-1.4
			c8.7-17.6,24.1-27.6,49.8-32.3c6.4-1.2,12.5-1.8,18.1-1.8c13.8,0,25.1,3.6,33.6,10.8c8.5,7.2,14.1,17.8,16.6,31.5
			c1.9,10.4,1.1,19.9-2.4,28.5c-3.3,8-8.8,14.9-16.4,20.4c4.6,0.4,8.9,1.4,12.7,3c4.3,1.8,8.1,4.4,11.3,7.7c3.2,3.3,6,7.4,8.1,12.2
			c2.2,4.8,3.9,10.4,5,16.8C277.6,218.6,274.2,232.9,264.8,244z"/>
	</g>
</g>
</svg>
