<svg height="28" viewBox="0 0 144 28" width="144" xmlns="http://www.w3.org/2000/svg"><path d="m85.3300062 98.1786096c-2.8147224 0-5.3300062-1.3775401-5.3300062-4.7315508 0-3.6834224 2.9943855-5.1208556 8.4142233-5.1208556h1.3474735v-.2695187c0-1.3176471-.2395508-2.2759358-1.8265752-2.2759358-1.3474734 0-1.7666874.8684492-1.856519 1.6770053h-5.5096693c.2395508-3.8331551 3.2339363-5.7796791 7.7255146-5.7796791 4.551466 0 7.3063007 1.8566845 7.3063007 5.9893048v10.1219251h-5.6893325v-1.7967914c-.6587648 1.0780748-2.0361822 2.1860962-4.5814099 2.1860962zm2.1260138-3.9529412c1.3474734 0 2.3056768-.7486631 2.3056768-1.9165775v-.8085561h-1.2576419c-1.9762945 0-2.694947.3893048-2.694947 1.4973262 0 .7486631.5689333 1.2278074 1.6469121 1.2278074zm10.8696194 8.7743316v-20.8727273h5.8989396v2.2759359c.868372-1.4673797 2.425452-2.6951872 4.791017-2.6951872 3.563319 0 6.557704 2.6652406 6.557704 8.1454545v.2395722c0 5.4802139-3.024329 8.0855615-6.587648 8.0855615-2.305677 0-3.982533-1.1080214-4.761073-2.6352941v7.4566845zm8.5040546-9.313369c1.766688 0 2.754835-1.257754 2.754835-3.6534759v-.2395722c0-2.515508-1.018091-3.713369-2.784779-3.713369-1.736743 0-2.72489 1.3176471-2.72489 3.713369v.2395722c0 2.4256684.958203 3.6534759 2.754834 3.6534759zm10.839676 9.313369v-20.8727273h5.898939v2.2759359c.868372-1.4673797 2.425453-2.6951872 4.791017-2.6951872 3.563319 0 6.557705 2.6652406 6.557705 8.1454545v.2395722c0 5.4802139-3.02433 8.0855615-6.587649 8.0855615-2.305676 0-3.982532-1.1080214-4.761073-2.6352941v7.4566845zm8.504055-9.313369c1.766687 0 2.754835-1.257754 2.754835-3.6534759v-.2395722c0-2.515508-1.018092-3.713369-2.784779-3.713369-1.736744 0-2.724891 1.3176471-2.724891 3.713369v.2395722c0 2.4256684.958204 3.6534759 2.754835 3.6534759zm17.367436 4.4620321c1.287586 0 2.395508-.2395722 3.114161-.4491979v-4.4320855c-.509046.1796791-.92826.2395722-1.467249.2395722-.958203 0-1.527137-.4491979-1.527137-1.5272728v-5.8994652h2.994386v-3.9529412h-2.994386v-3.204278h-5.898939v3.204278h-1.826575v3.9529412h1.826575v6.4684492c0 3.9229947 2.09607 5.6 5.779164 5.6zm5.509669-.3593583h5.868996v-15.6620321h-5.868996zm2.934498-16.8299465c1.796631 0 3.174049-1.257754 3.174049-2.9647059 0-1.7368984-1.377418-2.9946524-3.174049-2.9946524-1.826575 0-3.203992 1.257754-3.203992 2.9946524 0 1.7069519 1.377417 2.9647059 3.203992 2.9647059zm12.486588 17.1893048c1.287585 0 2.395508-.2395722 3.114161-.4491979v-4.4320855c-.509046.1796791-.92826.2395722-1.467249.2395722-.958204 0-1.527137-.4491979-1.527137-1.5272728v-5.8994652h2.994386v-3.9529412h-2.994386v-3.204278h-5.898939v3.204278h-1.826576v3.9529412h1.826576v6.4684492c0 3.9229947 2.09607 5.6 5.779164 5.6zm10.450405.0299465c2.635059 0 4.102308-1.1379679 4.97068-2.8149732v2.4256684h5.89894v-15.6620321h-5.89894v8.9240642c0 1.8566845-.868372 2.7251337-2.335621 2.7251337-1.377417 0-1.976294-.8085562-1.976294-2.3957219v-9.253476h-5.898939v10.2716578c0 3.8930481 2.245789 5.7796791 5.240174 5.7796791zm19.49345 0c-3.533375 0-6.52776-2.5454545-6.52776-8.0556149v-.2395722c0-5.4502674 2.964441-8.1754011 6.52776-8.1754011 2.455396 0 3.922645.9882353 4.791017 2.5754011v-8.9540107h5.898939v22.459893h-5.898939v-2.515508c-.77854 1.6171123-2.425452 2.9048128-4.791017 2.9048128zm2.185901-4.4919786c1.766688 0 2.754835-1.257754 2.754835-3.6834224v-.2395722c0-2.3657754-.958203-3.6834225-2.724891-3.6834225-1.796631 0-2.754834 1.197861-2.754834 3.713369v.2395722c0 2.4256684.988147 3.6534759 2.72489 3.6534759zm19.223956 4.4919786c-5.000624 0-8.683719-2.8449198-8.683719-8.0256684v-.2395722c0-5.0909091 3.892702-8.2352941 8.683719-8.2352941 4.401746 0 8.144728 2.515508 8.144728 8.1454545v1.4374332h-10.869619c.149719 1.886631 1.257642 2.9048128 2.934497 2.9048128 1.646913 0 2.275733-.7786096 2.455397-1.6770053h5.509669c-.479102 3.5935828-3.203993 5.6898395-8.174672 5.6898395zm-2.694947-10.002139h5.150343c-.059888-1.6770054-.868372-2.6951872-2.455396-2.6951872-1.437306 0-2.455397.9283423-2.694947 2.6951872z" fill-rule="evenodd" transform="translate(-80 -75)"/></svg>