<!--Generator: Adobe Illustrator 19.2.1, SVG Export Plug-In . SVG Version: 6.00 Build 0)--><svg version="1.1" id="Calque_1" xmlns="http://www.w3.org/2000/svg" x="0" y="0" viewBox="0 0 102.8 316.3" xml:space="preserve"><style>.st1{fill:#fff}</style><path d="M81.3 121.7h.9c-14.7 12.8-36 24.5-58.3 24.5C7.5 146.2 0 140 0 131.1c0-6 3.8-11.7 9.6-16.6h.9c0 10 14.9 13.8 28.5 13.8 11.4 0 32.5-2.7 42.3-6.6m-76.8-84C4.5 17.7 22 4.3 39.2.9v.4c-2.3 4.7-4.7 14.9-4.7 29.2 0 16.4 5.3 36.2 12.1 42.3v.4c-19.1 0-42.1-10.9-42.1-35.5m98.3 55.5c0 4-4 11.3-10.4 18.1H92c1-2.8 0-4.5-9.8-4.5H27c-11.1 0-21.7-2.1-21.7-11.3 0-7.9 8.7-15.1 20.9-19.8l.4.2c-.6.6-1.3 1.9-1.3 3.2 0 3.4 4.7 4 11.1 4h47.9c10.4.1 18.5 1.8 18.5 10.1M64.3 41.5C64.3 23.6 58.6 8.3 52 .4V0h47v.4C96 8.3 84.7 13 84.7 13c4.6 4.3 9.1 11 9.1 21 0 21.3-16.8 33.6-34.5 37.7v-.4c3.3-4.9 5-16.4 5-29.8" fill="#fff"/><path class="st1" d="M57.6 296.2c-2.6 0-5-2.7-6.8-5.7-.5-.9-1-1.7-1.4-2.3h.1c1.6 1.5 4.5 3.1 6.9 3.1s4.2-1.5 4.5-2.8h.1c.4.8.8 2.7.8 3.5-.1 3-2.4 4.2-4.2 4.2m-7.2.7l-5.6-1.9c-.5-3.1-.6-5.6-.6-6.3h.1c.9 2.6 5.1 7.2 6.1 8.2M44 286.1c0-3.4 1.9-4.5 4-4.5h9.2c1.8 0 3.2-.1 4.1-1.8h.1v6.7H47.1c-1.1 0-2.5.1-2.9.8h-.1c-.1-.5-.1-.8-.1-1.2M61.4 277.6c-.9-1.8-2.3-1.8-4.1-1.8h-8.8c-1.8 0-3.2.1-4.1 1.8h-.1v-6.7h13c1.8 0 3.2-.1 4.1-1.8h.1l-.1 8.5zm-16.7-14.4l4.2 2.5c-3 1-4 2.4-4.6 3.4h-.1c.1-2 .3-4.7.5-5.9M61.4 197.3c-.9-1.8-2.3-1.8-4.1-1.8h-8.8c-1.8 0-3.2.1-4.1 1.8h-.1v-6.7h13c1.8 0 3.2-.1 4.1-1.8h.1l-.1 8.5zm-16.7-14.4l4.2 2.5c-3 1-4 2.4-4.6 3.4h-.1c.1-2 .3-4.7.5-5.9M53 258.9c3.9 0 6.9-1.2 8.5-3h.1c-.3 4.6-2.8 7.8-8.1 7.8-5.9 0-8.5-3.9-9.1-7.8h.1c1.2 2 5.3 3 8.5 3m-11.4-5.1c-1.8 0-3.2.1-4.1 1.8h-.1v-6.7h19.9c1.8 0 3.2-.1 4.1-1.8h.1v6.7H41.6zM55.7 232.2c2.8.8 6.1 3.1 6.1 6.8 0 3.6-2.8 7.5-8.9 7.5-5.2 0-8.1-3.2-8.8-6.4h.1c.8 1 3 2.1 6.7 2.1 5.1 0 7-2.9 7-5.3 0-1.5-.8-3.3-2.2-4.7m-4.8 4.2c-2.9.1-5.7.7-6.9 1.6.3-3.3 3-5.9 7.4-6.1 0 0 1.2 3.9 1.2 8.4h-.1c-.4-2.9-1.6-3.9-1.6-3.9M55.7 198.4c2.8.8 6.1 3.1 6.1 6.8 0 3.6-2.8 7.5-8.9 7.5-5.2 0-8.1-3.2-8.8-6.4h.1c.8 1 3 2.1 6.7 2.1 5.1 0 7-2.9 7-5.3 0-1.5-.8-3.3-2.2-4.7m-4.8 4.2c-2.9.1-5.7.7-6.9 1.6.3-3.3 3-5.9 7.4-6.1 0 0 1.2 3.9 1.2 8.4h-.1c-.4-2.9-1.6-3.9-1.6-3.9"/><path class="st1" d="M61.4 231.9c-.9-1.8-2.3-1.8-4.1-1.8h-8.8c-1.8 0-3.2.1-4.1 1.8h-.1v-6.7h13c1.8 0 3.3-.1 4.1-1.5h.1l-.1 8.2zm-17.3-12.6c0-2.3 1.3-3.1 2.9-3.1h10.4c1.8 0 3.2-.1 4.1-1.8h.1v8.3h-.1c-.8-1.4-2.3-1.6-4.1-1.6H47.2c-1.6 0-2.3.7-2.2 2h-.1c-.4-1.2-.8-2.5-.8-3.8M58.6 172.4c-2 0-2.8 2.4-3.8 5.5-1.4 4.1-3 5.2-5.4 5.2-3.2 0-4.8-2.3-5.3-5h.1c.6 1.3 1.7 2.2 2.9 2.2 1.7 0 2.4-2.1 3.4-4.9 1.2-3.5 2.6-5.8 6-5.8 3.5 0 5 2.5 5.4 5.1h-.1c-.4-1.1-1.4-2.3-3.2-2.3m2.3 10.2l-5.7.4c2.3-1.1 5.2-2.9 6.6-6.2h.1c-.2 2.1-.7 4.3-1 5.8m-16-11.8l4.7-.2v.1c-3.3 1.8-5.1 3.6-5.6 5.4.1-1.8.5-3.6.9-5.3M64.4 302.8v-.1c2.1 2.4 4.1 6 4.1 9.7 0 2.7-1 4-2.5 4-1 0-1.9-.6-2.7-1.6v-.1c1.7 0 2.3-2.5 2.3-4.7-.1-2.1-.5-5.6-1.2-7.2m-13.9 12.7c-3.3 0-5.5-2.9-6.1-5.7h.1c.8.4 2.5.8 4.8.8 2.7 0 6-.9 7-2h.1c0 3.1-1.8 6.9-5.9 6.9m9.2-16.2c.7 0 1.9.7 3 1.7v.1c-.5-.2-.7 0-.7 1.6v9.1c0 1.8-.4 3.6-1.9 3.6-1.3 0-2.5-1.4-3.3-3.5v-.1c.1.1.3.2.5.2.6 0 .7-.8.7-1.8v-7.9c.1-1.7.3-3 1.7-3m-8.6 6.3c-3 0-5.5 1-6.8 2h-.1v-7.8h.1c1.3.5 2.1 2.4 2.1 2.4.7-.8 1.8-1.5 3.5-1.5 3.5 0 5.6 2.8 6.2 5.7H56c-.7-.5-2.6-.8-4.9-.8"/></svg>